<?xml version="1.0" encoding="utf-8"?>
<!-- Generator: Adobe Adobe Illustrator 24.2.0, SVG Export Plug-In . SVG Version: 6.00 Build 0)  -->
<svg version="1.1" id="Layer_1" xmlns="http://www.w3.org/2000/svg" xmlns:xlink="http://www.w3.org/1999/xlink" x="0px" y="0px"
	 viewBox="0 0 379 352" style="enable-background:new 0 0 379 352;" xml:space="preserve">
<style type="text/css">
	.st0{fill:#91B844;}
	.st1{fill:#91B746;}
	.st2{fill:#92B64B;}
	.st3{fill:#93B54F;}
	.st4{fill:#265239;}
	.st5{fill:#265139;}
	.st6{fill:#255138;}
	.st7{fill:#27523A;}
	.st8{fill:#28533B;}
	.st9{fill:#325943;}
</style>
<g>
	<path class="st0" d="M178.03,305.02c25.63-27.78,51.04-55.36,76.49-82.91c10.73-11.62,21.57-23.13,32.31-34.74
		c20.9-22.59,41.74-45.22,62.65-67.8c6.72-7.26,13.64-14.34,20.37-21.6c3.65-3.94,3.75-2.95,3.75,1.96c0,63.01,0,126.01,0,189.02
		c0,16.51,0,33.01,0,49.52c0,5.47-2.16,7.68-7.68,7.69c-16.37,0.03-32.75,0.01-49.12,0.01c-54.49,0-108.98,0-163.47-0.03
		c-2.18,0-4.39-0.21-6.52-0.64c-3.12-0.62-3.79-2.47-1.83-4.93c1.54-1.93,3.27-3.71,4.96-5.52
		C159.22,325.11,168.53,315.17,178.03,305.02z"/>
	<path class="st1" d="M342.03,101.65c-25.63,27.27-51.11,54.28-76.49,81.39c-23.38,24.98-46.65,50.06-69.99,75.08
		c-8.26,8.85-16.64,17.58-24.85,26.47c-17.53,18.96-34.99,37.98-52.44,57.01c-1.02,1.11-1.77,1.47-3.09,0.55
		c-8.11-5.65-14.34-16.75-11.78-27.05c1.44-5.78,4.9-10,9.66-12.78c5.89-3.43,12.08-6.75,18.57-8.67
		c14.57-4.31,22.82-17.61,23.23-31.35c0.24-8.03,3.34-15.16,9.34-20.41c2.96-2.59,7.11-4.01,10.92-5.39
		c6.94-2.52,14.04-4.62,21.06-6.91c7.57-2.47,10.73-8.33,12.29-15.62c1.66-7.73,3.24-15.51,5.56-23.05
		c2.97-9.64,9.95-14.91,19.93-16.56c4.42-0.73,8.79-2.05,13.05-3.49c5.99-2.02,8.5-7.12,10.01-12.71c0.67-2.48,0.74-5.16,0.87-7.76
		c0.34-6.99,3.24-12.65,9.46-15.81c4.7-2.38,9.92-3.78,14.93-5.52c4-1.39,8.17-2.36,12.04-4.03c7.41-3.21,12.72-8.49,14.72-16.62
		c1.11-4.52,2.2-9.05,3.5-13.51c1.23-4.2,2.19-8.62,4.24-12.41c3.47-6.4,9.58-9.7,16.54-11.18c3.46-0.74,7.58-1.28,10.46-1.58
		c-3.67-3.36-7.95-7-11.57-10.32c-1.6,1.73-2.16,2.22-3.43,3.59c-4.75,5.15-9.38,10.4-14.18,15.5
		c-25.35,26.89-50.72,53.77-76.13,80.61c-6.61,6.99-13.49,13.72-20.08,20.74c-11.84,12.6-23.47,25.4-35.35,37.98
		c-15.76,16.69-31.67,33.25-47.52,49.86c-5.5,5.77-11.06,11.5-16.5,17.33c-10.57,11.33-20.68,22.61-31.64,33.57
		c-0.87,0.87-2.03,2.4-3.55,1.12c-5.03-4.23-7.01-6.46-11.41-10.16c-0.93-0.78-1.63-2.41-0.56-3.57c0.39-0.42,1.04-1.08,1.5-1.58
		c15.48-16.73,30.91-33.51,46.46-50.17c20.83-22.31,41.81-44.47,62.64-66.78c21.84-23.39,43.57-46.89,65.36-70.33
		c9.64-10.37,19.35-20.68,28.97-31.07c12.4-13.4,24.73-26.86,37.1-40.28c5.95-6.46,6.48-6.46,12.69-0.54
		c8.26,7.87,16.58,15.69,24.81,23.6c2.87,2.76,5.51,5.76,8.37,8.52c1.47,1.42,1.7,2.64,0.3,4.21c-5.39,6.01-10.75,12.07-16.12,18.1
		C343.41,100.28,342.81,100.84,342.03,101.65z"/>
	<path class="st2" d="M242.95,227.12c-17.72,18.85-35.29,37.43-52.72,56.14c-16.38,17.58-32.62,35.3-48.91,52.97
		c-1.3,1.41-2.54,2.88-3.75,4.38c-3.35,4.15-7.68,5.41-13.33,4.4c1.13-1.5,1.97-2.87,3.05-4.03c11.16-11.97,22.39-23.88,33.52-35.87
		c15.89-17.11,31.68-34.3,47.59-51.39c10.59-11.38,21.3-22.63,31.97-33.94c10.19-10.8,20.45-21.55,30.58-32.41
		c21.73-23.3,43.39-46.68,65.11-70c9.19-9.86,18.55-19.56,27.63-29.51c2.01-2.21,3.42-2.76,5.79,0.54c0.51,0.71,0.38,2.32-0.08,3.18
		c-0.76,1.42-1.98,2.63-3.1,3.82c-27.54,29.21-55.15,58.35-82.63,87.62C270.03,197.54,256.65,212.28,242.95,227.12z"/>
	<path class="st3" d="M62.11,236.07c4.73-1.2,8.4,0.45,11.88,2.91c1.83,1.3,2.26,2.68,0.5,4.37c-0.79,0.76-1.58,1.54-2.27,2.39
		c-1.08,1.33-2.11,1.18-3.56,0.44c-6.08-3.07-14.9,1.78-15.23,8.58c-0.09,1.74,1.24,3.81,2.46,5.28c1.36,1.63,3.3,0.88,4.89-0.12
		c4.53-2.85,9.02-5.79,13.57-8.62c3.66-2.27,7.51-3.24,11.78-1.63c7.6,2.87,11.63,10.8,8.85,18.4c-3.14,8.57-8.76,14.91-17.89,17.33
		c-5.72,1.52-10.49-0.87-14.72-4.49c-0.46-0.39-0.56-1.89-0.18-2.42c1.03-1.44,2.28-2.81,3.7-3.84c0.61-0.44,2.12-0.32,2.8,0.15
		c3.37,2.34,6.74,3.02,10.35,0.68c4.22-2.73,7.41-6.33,7.91-11.47c0.34-3.54-3.84-6.33-7.16-4.92c-2.38,1.01-4.55,2.52-6.78,3.88
		c-2.93,1.79-5.73,3.83-8.75,5.43c-8.02,4.24-16.61,0.35-19.14-8.44c-0.96-3.33-0.78-6.59,0.59-9.64
		C48.88,243.21,53.98,238.11,62.11,236.07z"/>
	<path class="st4" d="M205.71,125.34c-2.9-4.66-5.67-9.41-8.75-13.95c-1.46-2.15-1.24-3.49,0.52-5.29c3.52-3.6,3.42-3.71,7.73-1.33
		c3.37,1.86,6.72,3.75,10.09,5.61c1.18,0.65,2.39,1.26,4.37,2.29c-0.48-1.53-0.57-2.41-0.99-3.09c-2.46-3.97-5.02-7.88-7.51-11.84
		c-2.42-3.84-2.41-3.86,0.9-7.19c0.75-0.76,1.6-1.42,2.73-2.4c0.89,1.38,1.65,2.49,2.32,3.64c5.07,8.65,9.94,17.42,15.28,25.9
		c1.91,3.04,0.27,4.29-1.32,6.23c-1.73,2.12-3.26,2.25-5.58,0.89c-4.85-2.83-9.87-5.37-15.48-7.58c0.37,0.86,0.63,1.8,1.12,2.58
		c2.71,4.3,5.42,8.61,8.27,12.81c1.17,1.73,1.04,3.11-0.55,4.24c-1.69,1.21-2.28,4.55-5.51,2.88c-10.13-5.24-20.28-10.45-30.41-15.7
		c-0.33-0.17-0.52-0.59-1.11-1.27c1.59-1.66,3.03-3.49,4.81-4.88c0.64-0.5,2.27-0.29,3.15,0.17c4.86,2.55,9.64,5.28,14.91,8.19
		C205.35,126.13,205.53,125.74,205.71,125.34z"/>
	<path class="st3" d="M98.98,239.35c-2.83-4.53-5.54-9.16-8.55-13.56c-1.59-2.33-1.69-3.89,0.48-5.96c3.78-3.61,3.64-3.75,8.2-1.12
		c3.45,1.99,6.91,3.98,10.39,5.91c0.89,0.49,1.89,0.79,3.37,0.58c-2.39-3.91-4.78-7.82-7.18-11.73c-0.57-0.94-1.31-1.79-1.78-2.77
		c-1.53-3.2-1.97-3.17-0.07-5.26c0.97-1.07,3.88-3.83,5.18-2.13c1.62,2.13,1,1.27,1.87,2.66c5.25,8.38,9.99,17.08,15.24,25.46
		c1.76,2.8,0.85,4.34-1.09,6.34c-1.93,2-3.42,2.95-6.21,1.17c-4.47-2.85-9.28-5.19-14.86-8.24c0.56,1.8,0.65,2.69,1.08,3.38
		c2.54,4.08,5.08,8.17,7.79,12.13c1.3,1.9,1.52,3.36-0.44,4.91c-1.89,1.5-2.89,4.35-6.41,2.44c-9.06-4.91-18.31-9.46-27.47-14.19
		c-3.76-1.94-3.83-2.21-1-5.16c4.24-4.41,2.92-4,8.08-1.25c4.12,2.2,8.15,4.57,12.64,7.08c0.63,0.2,0.84,0.18,1.05,0.16
		C99.2,239.92,99.09,239.64,98.98,239.35z"/>
	<path class="st5" d="M51.08,229.51c-9.64-4.17-17.04-10.25-20.2-20.26c-2.09-6.63-1.25-13.12,3.02-18.77
		c2.53-3.34,4.83-6.96,8.82-8.96c6.18-3.09,12.2-2.82,18.09,0.62c2.47,1.44,2.55,2.3,0.73,4.52c-0.78,0.96-1.75,1.76-2.52,2.72
		c-1.03,1.29-2.07,1.28-3.6,0.73c-6.12-2.2-9.79-1.15-13.91,3.68c-3.71,4.35-4.33,9.43-1.5,14.53c3.01,5.43,7.3,9.64,13.01,12.2
		c5.54,2.48,10.54,1.39,14.64-2.96c3.91-4.15,4.48-9.01,1.76-14.44c-0.64-1.28-1.91-3.06-1.49-3.9c0.96-1.89,2.72-3.41,4.35-4.87
		c0.3-0.26,1.75,0.26,2.25,0.81c5.28,5.73,6.5,15.81,2.82,22.8C72.6,227.01,61.93,233.14,51.08,229.51z"/>
	<path class="st6" d="M164.29,147.03c-0.16-7.86,4.14-12.2,11.19-15.31c-2.03-2.03-3.88-3.89-5.75-5.75
		c-4.55-4.54-5.55-3.22,0.09-8.99c0.28-0.29,0.66-0.47,1.29-0.9c4.77,4.46,9.58,8.94,14.37,13.43c6.02,5.65,12.06,11.27,18,17.01
		c1.06,1.03,2.26,2.58,2.26,3.89c0,1.75-3.79,3.96-5.99,3.99c-0.98,6.5-4.5,10.92-11.02,12.68c-3.93,1.06-7.72,0.44-11.2-1.42
		C170.2,161.73,165.47,155.81,164.29,147.03z M172.52,144.77c-0.08,6.65,6.7,14.07,13.14,14.37c5.34,0.25,8.95-4.57,7.16-9.59
		c-1.5-4.2-4.57-7.12-8.24-9.36C179.48,137.07,175.18,138.59,172.52,144.77z"/>
	<path class="st6" d="M104.74,147.72c-4.63-4.32-9.06-8.43-13.46-12.57c-2.68-2.53-2.66-2.56-0.26-5.17
		c3.17-3.46,3.17-3.45,6.59-0.23c2.1,1.98,4.21,3.94,6.33,5.89c0.18,0.17,0.5,0.18,0.26,0.1c2.21-3.05,3.93-6.36,6.49-8.77
		c4.26-4,9.5-4.62,14.96-2.34c8.41,3.51,15.07,12.56,15.06,20.47c0,5.77-2.85,9.99-7.64,12.76c-2,1.15-3.72,2.03-4.69,4.36
		c-0.64,1.53-2.31,2.62-3.74,4.14C117.94,160.08,111.45,154,104.74,147.72z M112.08,138.18c-0.35,6.29,6.94,14.28,13.17,14.51
		c3.87,0.14,9.52-4.46,7.02-10.01c-1.82-4.04-4.65-7.15-8.49-9.27C118.54,130.49,114.79,131.9,112.08,138.18z"/>
	<path class="st7" d="M242.66,38.6c1.43-1.8,2.61-2.13,4.22-0.5c2.6,2.62,5.38,5.04,7.93,7.41c2.1-3.05,3.69-6.13,5.98-8.52
		c4.29-4.49,9.67-5.23,14.47-1.39c6.75,5.39,12.96,11.47,19.32,17.35c0.43,0.4,0.72,0.85,0.64,1.66c-0.03,0.33-1.02,1.36-1.29,1.67
		c-3.72,4.24-3.72,4.24-7.82,0.37c-4.3-4.06-8.57-8.16-12.93-12.15c-3.33-3.04-5.14-3.27-7.57-1.3c-2.78,2.24-3.91,6.33-2.27,9.27
		c0.92,1.65,2.2,3.16,3.56,4.5c3.81,3.77,7.69,7.49,11.66,11.09c1.69,1.53,2.03,2.74,0.16,4.28c-0.74,0.61-1.38,1.35-1.99,2.09
		c-1.16,1.41-2.18,1.19-3.43,0.02c-10.73-10.08-21.46-20.15-32.27-30.14C237.84,41.34,241.62,40.53,242.66,38.6z"/>
	<path class="st7" d="M158.99,196.71c-7.48-7.26-14.7-14.38-22.05-21.36c-1.76-1.67-2.36-3.03-0.2-4.61
		c1.48-1.08,1.99-4.03,4.87-2.67c0.06,0.03,0.62-0.93,0.89-1.46c0.96-1.95,1.6-4.14,2.89-5.84c5.22-6.87,11.56-7.68,18.1-2.07
		c5.74,4.92,11.09,10.27,16.68,15.36c1.63,1.48,1.41,2.54,0.02,4.08c-3.78,4.19-3.72,4.26-7.82,0.41
		c-4.21-3.95-8.33-7.99-12.59-11.9c-3.29-3.02-5.65-3.39-8.01-1.55c-3.02,2.36-3.91,6.7-1.88,10.02c0.77,1.27,1.88,2.36,2.93,3.44
		c4.01,4.1,8,8.23,12.12,12.22c1.48,1.44,1.87,2.59,0.19,4.07c-0.82,0.72-1.61,1.51-2.28,2.38
		C161.42,199.04,160.32,198.14,158.99,196.71z"/>
	<path class="st4" d="M82.82,164.63c4.63,4.34,9.02,8.51,13.47,12.61c2.98,2.74,4.73,3.12,6.92,1.73c2.76-1.75,4.18-5.16,2.88-8.27
		c-0.87-2.09-2.29-4.08-3.88-5.71c-3.65-3.74-7.56-7.21-11.35-10.81c-2.57-2.45-2.56-2.46-0.13-5.19c0.55-0.62,1.13-1.2,1.67-1.83
		c0.98-1.16,1.87-1.31,3.08-0.17c7.78,7.39,15.6,14.73,23.44,22.06c1.29,1.21,1.43,2.31,0,3.4c-1.56,1.18-3.21,2.23-4.77,3.42
		c-0.47,0.36-0.81,0.94-1.12,1.47c-1.64,2.81-2.99,5.82-4.91,8.41c-3.42,4.59-11.09,4.76-15.5,0.5
		c-5.51-5.33-10.98-10.72-16.39-16.15c-0.88-0.88-2.23-2.7-1.95-3.11c1.31-1.88,2.96-3.63,4.85-4.9
		C79.57,161.8,81.41,163.6,82.82,164.63z"/>
	<path class="st2" d="M138.43,221.19c-9.31,1.57-14.76-4.05-19.67-10.07c-6.33-7.74-7.08-17.94,0.09-25.11
		c0.95-0.95,1.57-1.56,2.51-2.43c5.66-5.18,19.07-2.67,21.32,6.51c0.31,1.26-0.59,3.21-1.55,4.31c-3.34,3.83-6.95,7.42-10.46,11.1
		c-0.75,0.79-1.48,1.59-2.22,2.38c6.2,6.57,12.44,6.96,17.6,0.91c1.75-2.05,2.91-4.61,4.24-7c0.61-1.09,0.38-3,2.56-2.24
		c1.67,0.58,3.02,1.48,2.8,3.52c-0.1,0.93-0.26,1.96-0.73,2.73C150.95,212.37,146.08,218.02,138.43,221.19z M127.97,201.78
		c1.33-1.39,2.71-2.74,3.99-4.17c3.87-4.3,3.33-6.62-2.26-8.3c-1.61-0.49-3.89-0.28-5.36,0.53c-4.58,2.54-5.22,7.32-1.96,11.95
		C124.5,204.79,124.72,204.81,127.97,201.78z"/>
	<path class="st7" d="M255.99,63.04c-0.7,1.12-1.43,1.93-2.08,2.81c-1.54,2.08-3.14,3.13-5.78,1.43c-2.21-1.43-4.49-0.82-6.42,0.91
		c-2.08,1.86-3.58,4.25-2.48,6.92c2.09,5.09,4.89,9.8,10.27,12.21c2.7,1.21,5.35,1.28,7.65-0.93c2.29-2.19,2.9-4.89,2.08-7.89
		c-0.45-1.66-1.88-3.61-1.39-4.85c0.74-1.89,2.76-3.27,4.22-4.85c5.38,4.51,7.05,11.48,4.38,17.51c-3.19,7.2-9.75,10.91-17.25,9.76
		c-10.85-1.66-19.89-14.24-17.68-24.95c1.26-6.13,5.28-10.23,11.09-12.24C247.8,57.07,252.24,58.96,255.99,63.04z"/>
	<path class="st8" d="M299.89,45.09c2.27-3.51-0.26-6.07-2.71-8.21c-1.24-1.08-2.46-2.2-3.65-3.35c-3.93-3.79-4.5-5.3-4.09-10.31
		c-2.87-0.63-5.95-0.77-8.49-2.02c-2.51-1.23-4.48-3.57-6.69-5.43c-1.93-1.62-3.73-2.91-6.68-2.04c-1.3,0.38-3.15-1.08-4.88-1.76
		c4.46-6.79,10.27-7.92,15.8-3.56c1.94,1.53,3.71,3.27,5.54,4.94c2.38,2.17,4.87,3.25,8.25,2.08c3.05-1.06,4.53,0.58,3.77,3.88
		c-0.66,2.85,0.09,5.13,2.19,7.07c2.12,1.96,4.26,3.9,6.32,5.92c4.13,4.07,3.96,10.88-0.37,14.61
		C301.95,48.86,300.94,46.61,299.89,45.09z"/>
	<path class="st6" d="M18.72,236.7c-1.89-1.06-3.04-2.06-2.08-4.36c1.14-2.71-0.04-5.08-2.01-7.05c-2.04-2.04-4.22-3.94-6.17-6.06
		c-3.95-4.27-4.07-8.8-0.34-13.27c0.63-0.76,2.47-1.63,2.74-1.37c0.95,0.89,2.24,2.47,1.98,3.4c-0.81,2.9,0.42,4.75,2.28,6.54
		c1.39,1.33,2.82,2.61,4.18,3.97c3.71,3.7,4.28,5.38,3.73,10.66c0.21,0.17,0.48,0.52,0.61,0.48c4.71-1.66,8.18,0.55,11.41,3.6
		c1.59,1.51,3.12,3.15,4.93,4.34c1.15,0.76,3.05,1.47,4.12,1.03c2.9-1.22,3.94,0.65,5.31,2.29c-4.55,6.36-10.32,7.07-15.98,2.01
		c-1.53-1.37-3.08-2.75-4.48-4.25C26.06,235.59,22.85,234.6,18.72,236.7z"/>
	<path class="st7" d="M92.35,194c4.1,3.98,4.1,3.98-2.11,9.3c-1.06-0.91-2.21-1.81-3.26-2.82c-9.95-9.6-19.88-19.21-29.81-28.82
		c-2.67-2.58-2.61-2.53-0.02-5.44c0.9-1.01,1.47-2.33,2.5-4.02C71.17,173.41,81.66,183.6,92.35,194z"/>
	<path class="st8" d="M231.16,87.45c5.31,4.99,10.79,10.26,15.86,15.08c2.65,2.51,2.62,2.86,0.26,5.55
		c-0.99,1.13-3.18,3.37-4.49,2.29c-5.56-4.56-9.08-7.84-13.57-12.03c-3.51-3.27-6.95-6.62-10.52-9.84c-1.56-1.41-2.3-2.65-0.49-4.37
		c0.47-0.44,1.06-1.25,1.53-1.72c2.77-2.77,2.58-3.44,5.55-0.65C227.15,83.53,229.21,85.36,231.16,87.45z"/>
	<path class="st9" d="M210.52,73.53c1.35-1.23,0.62-0.48,1.93-1.79c1.02-1.02,3.23,1.21,4.99,2.97c2.01,2.01,1.78,2.2-0.5,4.48
		c-1.11,1.11-2.83,3.35-3.68,2.92c-2.07-1.06-3.81-3.07-5.01-4.87C207.52,76.14,209.29,74.76,210.52,73.53z"/>
</g>
</svg>
